<svg xmlns="http://www.w3.org/2000/svg" width="50" height="50" viewBox="0 0 24 24">
  <path fill="#F7F7F7" d="M20.32 11.95c-.1.2-.2.4-.3.6-.3.6-.7 1.1-1.1 1.5-.4.4-.8.8-1.3 1.1-.5.3-1 .5-1.5.7-.5.2-1 .2-1.5.2H5.68c-.5 0-1-.1-1.5-.2-.5-.2-1-.4-1.5-.7-.5-.3-.9-.7-1.3-1.1-.4-.4-.8-.9-1.1-1.5-.1-.2-.2-.4-.3-.6v-.1c0-.2-.1-.4-.1-.6 0-.2-.1-.4-.1-.6 0-.3 0-.6.1-.9.1-.3.1-.6.2-.9.1-.3.2-.6.4-.8.2-.2.4-.4.7-.6.3-.2.6-.3.9-.4.3-.1.6-.1.9-.1h7.3c.3 0 .6 0 .9.1.3.1.6.2.9.4.3.2.5.4.7.6.2.2.3.5.4.8.1.3.2.6.2.9 0 .2 0 .4-.1.6-.1.2-.1.4-.1.6 0 .2-.1.4-.1.6zm-6.62-6.12c-1.1 0-2 .9-2 2 0 .6.2 1.2.6 1.6.4.4 1 .6 1.6.6.6 0 1.2-.2 1.6-.6.4-.4.6-1 .6-1.6 0-1.1-.9-2-2-2z"/>
</svg>
